<mxfile host="app.diagrams.net" modified="2024-07-05T11:46:40.656Z" agent="Mozilla/5.0 (Macintosh; Intel Mac OS X 10_15_7) AppleWebKit/605.1.15 (KHTML, like Gecko) Version/17.5 Safari/605.1.15" version="24.6.4" etag="rDknTKzyAs99Z_AKyzm-" type="github">
  <diagram name="第 1 页" id="pe8wfrGRiwYmhNMbga9e">
    <mxGraphModel>
      <root>
        <mxCell id="0" />
        <mxCell id="1" parent="0" />
      </root>
    </mxGraphModel>
  </diagram>
</mxfile>
